<svg xmlns="http://www.w3.org/2000/svg" xmlns:xlink="http://www.w3.org/1999/xlink" width="1000" zoomAndPan="magnify" viewBox="0 0 750 74.999997" height="100" preserveAspectRatio="xMidYMid meet" version="1.0"><rect x="-75" width="900" fill="#ffffff" y="-7.5" height="89.999996" fill-opacity="1"/><path fill="#6fdcbf" d="M -5.667969 68.414062 L 12.390625 69.503906 C 30.453125 70.679688 66.574219 72.863281 102.523438 65.21875 C 138.558594 57.492188 174.34375 39.851562 210.378906 28.765625 C 246.332031 17.761719 282.453125 13.226562 318.40625 23.726562 C 354.441406 34.226562 390.222656 59.761719 426.261719 63.203125 C 462.210938 66.734375 498.332031 48.253906 534.285156 45.902344 C 570.320312 43.464844 606.105469 57.242188 642.140625 52.285156 C 678.09375 47.414062 714.210938 23.894531 732.273438 12.132812 L 750.332031 0.371094 L 750.332031 175.089844 L 732.273438 175.089844 C 714.210938 175.089844 678.09375 175.089844 642.140625 175.089844 C 606.105469 175.089844 570.320312 175.089844 534.285156 175.089844 C 498.332031 175.089844 462.210938 175.089844 426.261719 175.089844 C 390.222656 175.089844 354.441406 175.089844 318.40625 175.089844 C 282.453125 175.089844 246.332031 175.089844 210.378906 175.089844 C 174.34375 175.089844 138.558594 175.089844 102.523438 175.089844 C 66.574219 175.089844 30.453125 175.089844 12.390625 175.089844 L -5.667969 175.089844 Z M -5.667969 68.414062 " fill-opacity="1" fill-rule="nonzero"/></svg>