<svg xmlns="http://www.w3.org/2000/svg" xmlns:xlink="http://www.w3.org/1999/xlink" width="1000" zoomAndPan="magnify" viewBox="0 0 750 74.999997" height="100" preserveAspectRatio="xMidYMid meet" version="1.0"><rect x="-75" width="900" fill="#ffffff" y="-7.5" height="89.999996" fill-opacity="1"/><path fill="#6fdcbf" d="M 0 7.386719 L 19.136719 7.207031 C 38.269531 7.121094 76.539062 6.761719 114.632812 21.003906 C 152.8125 35.242188 190.726562 64.078125 228.90625 69.417969 C 267 74.757812 305.269531 56.601562 343.363281 49.839844 C 381.542969 42.988281 419.457031 47.4375 457.636719 53.222656 C 495.730469 59.007812 534 66.125 572.09375 62.386719 C 610.273438 58.738281 648.1875 44.144531 686.367188 47.167969 C 724.460938 50.105469 762.730469 70.578125 781.863281 80.8125 L 801 91.046875 L 801 202.296875 L 781.863281 202.296875 C 762.730469 202.296875 724.460938 202.296875 686.367188 202.296875 C 648.1875 202.296875 610.273438 202.296875 572.09375 202.296875 C 534 202.296875 495.730469 202.296875 457.636719 202.296875 C 419.457031 202.296875 381.542969 202.296875 343.363281 202.296875 C 305.269531 202.296875 267 202.296875 228.90625 202.296875 C 190.726562 202.296875 152.8125 202.296875 114.632812 202.296875 C 76.539062 202.296875 38.269531 202.296875 19.136719 202.296875 L 0 202.296875 Z M 0 7.386719 " fill-opacity="1" fill-rule="nonzero"/></svg>