<svg xmlns="http://www.w3.org/2000/svg" xmlns:xlink="http://www.w3.org/1999/xlink" zoomAndPan="magnify" preserveAspectRatio="xMidYMid meet" version="1.0" viewBox="0.89 274 1228.23 417.95"><defs><clipPath id="ba80ba93c9"><path d="M 0.886719 274 L 1229.113281 274 L 1229.113281 691.953125 L 0.886719 691.953125 Z M 0.886719 274 " clip-rule="nonzero"/></clipPath></defs><g clip-path="url(#ba80ba93c9)"><path fill="#ffffff" d="M 0.890625 352.183594 L 41.832031 360.097656 C 82.773438 368.148438 164.652344 383.976562 246.535156 373.605469 C 328.414062 363.097656 410.296875 326.257812 492.179688 303.058594 C 574.058594 279.863281 655.941406 270.308594 737.820312 277.132812 C 819.703125 283.957031 901.585938 307.152344 983.464844 338.535156 C 1065.347656 369.921875 1147.226562 409.492188 1188.167969 429.277344 L 1229.109375 449.0625 L 1229.109375 691.953125 L 1188.167969 691.953125 C 1147.226562 691.953125 1065.347656 691.953125 983.464844 691.953125 C 901.585938 691.953125 819.703125 691.953125 737.820312 691.953125 C 655.941406 691.953125 574.058594 691.953125 492.179688 691.953125 C 410.296875 691.953125 328.414062 691.953125 246.535156 691.953125 C 164.652344 691.953125 82.773438 691.953125 41.832031 691.953125 L 0.890625 691.953125 Z M 0.890625 352.183594 " fill-opacity="1" fill-rule="nonzero"/></g></svg>